<svg width="35" height="35" viewBox="0 0 35 35" fill="none" xmlns="http://www.w3.org/2000/svg">
<path d="M0.523289 20.4976C-0.17443 19.7929 -0.17443 18.65 0.523289 17.9453L3.33377 15.1066L9.13432 20.9654L0.523289 20.4976Z" fill="url(#paint0_linear_20_303)"/>
<path d="M4.90521 29.474C3.78046 28.3144 3.78046 26.4341 4.90521 25.2745L6.91444 23.2029L13.0254 29.6883L9.20274 30.697L4.90521 29.474Z" fill="url(#paint1_linear_20_303)"/>
<path d="M19.134 16.5671L33.8591 7.96188C33.6244 7.72059 33.343 7.52761 32.9992 7.33456L21.979 0.868618C21.0099 0.305598 20.072 0 19.134 0C18.1962 0 17.2583 0.305598 16.2891 0.868618L5.2689 7.33456C4.92503 7.52761 4.64364 7.72059 4.40914 7.96188L19.134 16.5671ZM18.0711 35V18.4973L3.39312 9.8759C3.31495 10.2298 3.26807 10.6158 3.26807 11.0984V23.6282C3.26807 25.9605 4.06527 26.8291 5.51901 27.6816L17.7585 34.8553C17.8679 34.9196 17.9617 34.9679 18.0711 35ZM20.197 35C20.3065 34.9679 20.4002 34.9196 20.5097 34.8553L32.7492 27.6816C34.2029 26.8291 35 25.9605 35 23.6282V11.0984C35 10.6158 34.9533 10.2298 34.8752 9.8759L20.197 18.4973V35Z" fill="url(#paint2_linear_20_303)"/>
<path opacity="0.28" d="M32.7271 8.31187C31.2798 8.02258 29.1172 7.19922 27.3115 8.02258C24.7772 9.17819 21.2631 12.2718 18.0676 10.8329C11.1535 7.72349 9.75155 5.90468 5.50903 8.31187C5.55224 8.11207 8.71122 6.34992 8.85729 6.20288L10.9526 5.00408L17.1307 1.42989C17.5411 1.20789 18.6212 0.919287 19.1217 0.965801C19.6365 0.941488 20.7598 1.18569 21.1918 1.47429L32.7271 8.31187Z" fill="url(#paint3_linear_20_303)"/>
<path d="M26.0795 8.39697L23.4794 18.2112L21.9839 15.6836L17.3659 20.3441C16.3552 21.365 15.243 22.2532 14.0594 22.9933C12.2032 24.1506 9.53672 23.6167 7.46982 23.4912L4.98132 21.4371C8.51333 21.3271 11.8762 19.8661 14.3821 17.3346L19.0789 12.5868L16.1707 10.8298L26.0795 8.39697Z" fill="url(#paint4_linear_20_303)"/>
<path d="M26.9848 18.9755L24.864 26.8204L23.647 24.7997L19.8812 28.5314C19.0027 29.3975 18.0342 30.146 16.9937 30.759C15.6398 31.561 14.1242 31.928 12.6227 31.8961L10.0844 29.3832C12.8673 29.2298 15.4559 28.0894 17.4435 26.122L21.2814 22.3263L18.9051 20.9185L26.9848 18.9755Z" fill="url(#paint5_linear_20_303)"/>
<path d="M26.2377 18.0146L24.0011 26.6477L22.714 24.424L18.7425 28.5265C17.8166 29.4829 16.7949 30.3037 15.6996 30.9802C12.2258 33.125 7.7635 32.4475 4.9021 29.4913H7.72317C10.9164 29.4913 13.9161 28.2086 16.1754 25.8748L20.2191 21.7013L17.7168 20.1522L26.2377 18.0146Z" fill="url(#paint6_linear_20_303)"/>
<path d="M25.3297 7.44604L22.7296 17.2642L21.2306 14.7327L16.6126 19.3971C15.6019 20.4179 14.4929 21.3037 13.3071 22.0449C9.22164 24.5993 3.92101 23.9292 0.523438 20.4975H3.80373C7.48942 20.4975 11.0242 19.0187 13.6302 16.3862L18.3294 11.6394L15.4213 9.88236L25.3297 7.44604Z" fill="url(#paint7_linear_20_303)"/>
<g opacity="0.5">
<path opacity="0.78" d="M25.6776 18.5433L24.1717 24.4041C23.0505 23.54 21.8126 22.7308 20.4688 22.0002L20.8349 21.6232L18.7213 20.3034L25.6776 18.5433Z" fill="url(#paint8_linear_20_303)"/>
<path opacity="0.78" d="M24.801 7.96802L22.5955 16.2982L21.303 14.1196L16.9784 18.4916C15.9488 18.2108 14.8894 17.9718 13.8035 17.7741C13.4842 17.7172 13.1645 17.6641 12.8491 17.6146C13.2097 17.3148 13.5594 16.9923 13.8938 16.6546L18.936 11.5652L16.3997 10.032L24.801 7.96802Z" fill="url(#paint9_linear_20_303)"/>
</g>
<defs>
<linearGradient id="paint0_linear_20_303" x1="-0.00012253" y1="18.036" x2="9.13418" y2="18.036" gradientUnits="userSpaceOnUse">
<stop stop-color="#B0D1FF"/>
<stop offset="1" stop-color="#4F93FF"/>
</linearGradient>
<linearGradient id="paint1_linear_20_303" x1="4.06161" y1="26.9497" x2="13.0255" y2="26.9497" gradientUnits="userSpaceOnUse">
<stop stop-color="#B0D1FF"/>
<stop offset="1" stop-color="#4F93FF"/>
</linearGradient>
<linearGradient id="paint2_linear_20_303" x1="19.134" y1="0" x2="19.134" y2="35" gradientUnits="userSpaceOnUse">
<stop stop-color="#00245B"/>
<stop offset="1" stop-color="#0058D4"/>
</linearGradient>
<linearGradient id="paint3_linear_20_303" x1="19.3199" y1="5.70712" x2="19.2074" y2="15.1248" gradientUnits="userSpaceOnUse">
<stop/>
<stop offset="1" stop-color="#B0D1FF"/>
</linearGradient>
<linearGradient id="paint4_linear_20_303" x1="4.98174" y1="16.469" x2="26.0794" y2="16.469" gradientUnits="userSpaceOnUse">
<stop stop-color="#001334"/>
<stop offset="1" stop-color="#00245B"/>
</linearGradient>
<linearGradient id="paint5_linear_20_303" x1="10.085" y1="25.4368" x2="26.9849" y2="25.4368" gradientUnits="userSpaceOnUse">
<stop stop-color="#001334"/>
<stop offset="1" stop-color="#00245B"/>
</linearGradient>
<linearGradient id="paint6_linear_20_303" x1="4.90206" y1="25.1243" x2="26.2378" y2="25.1243" gradientUnits="userSpaceOnUse">
<stop stop-color="#0065FF"/>
<stop offset="1" stop-color="#00C4F7"/>
</linearGradient>
<linearGradient id="paint7_linear_20_303" x1="0.523718" y1="15.5194" x2="25.3299" y2="15.5194" gradientUnits="userSpaceOnUse">
<stop stop-color="#0065FF"/>
<stop offset="1" stop-color="#00C4F7"/>
</linearGradient>
<linearGradient id="paint8_linear_20_303" x1="23.4794" y1="18.8382" x2="19.1464" y2="25.7561" gradientUnits="userSpaceOnUse">
<stop/>
<stop offset="1" stop-color="#B0D1FF"/>
</linearGradient>
<linearGradient id="paint9_linear_20_303" x1="19.0296" y1="13.7732" x2="14.1474" y2="19.9879" gradientUnits="userSpaceOnUse">
<stop/>
<stop offset="1" stop-color="#B0D1FF"/>
</linearGradient>
</defs>
</svg>
